<?xml version="1.0" encoding="UTF-8"?><!DOCTYPE svg PUBLIC "-//W3C//DTD SVG 1.1//EN" "http://www.w3.org/Graphics/SVG/1.1/DTD/svg11.dtd"><svg xmlns="http://www.w3.org/2000/svg" xmlns:xlink="http://www.w3.org/1999/xlink"><defs/><symbol id="accessibility-human" viewBox="0 0 24 24" aria-labelledby="accessibilityHumanIconTitle" stroke="currentColor" fill="none" stroke-linecap="square" vector-effect="non-scaling-stroke" stroke-width="1"><title>Accessibility features</title><circle cx="12" cy="3" r="1"/><path d="M16 21l-4-8m0 0V7m0 6l-4 8m4-14l6 2m-6-2L6 9"/></symbol><symbol id="accessibility" viewBox="0 0 24 24" aria-labelledby="accessibilityIconTitle" stroke="currentColor" fill="none" stroke-linecap="square" vector-effect="non-scaling-stroke" stroke-width="1"><title>A11Y (accessibility)</title><path d="M2 16l.8-2M6 16l-.8-2m0 0L4 11l-1.2 3m2.4 0H2.8M20 13l2-3m-2 3l-2-3m2 3v3M8 12l2-2v6m3-4l2-2v6"/></symbol><symbol id="activity" viewBox="0 0 24 24" aria-labelledby="activityIconTitle" stroke="currentColor" fill="none" stroke-linecap="square" vector-effect="non-scaling-stroke" stroke-width="1"><title>Activity</title><path d="M21 14h-3l-3-7-5 10-3-6-2 3H3"/></symbol><symbol id="add-to-list" viewBox="0 0 24 24" aria-labelledby="addToListIconTitle" stroke="currentColor" fill="none" stroke-linecap="square" vector-effect="non-scaling-stroke" stroke-width="1"><title>Add To List</title><path d="M6 10h12M6 6h12M6 14h4m4 2h4m-2-2v4M6 18h4"/></symbol><symbol id="add" viewBox="0 0 24 24" aria-labelledby="addIconTitle" stroke="currentColor" fill="none" stroke-linecap="square" vector-effect="non-scaling-stroke" stroke-width="1"><title>Add</title><path d="M17 12H7m5 5V7"/><circle cx="12" cy="12" r="10"/></symbol><symbol id="alarm" viewBox="0 0 24 24" aria-labelledby="alarmIconTitle" stroke="currentColor" fill="none" stroke-linecap="square" vector-effect="non-scaling-stroke" stroke-width="1"><title>Alarm</title><circle cx="12" cy="13" r="9"/><path d="M12 8v5l3 3m4-14l3 3M2 5l3-3"/></symbol><symbol id="align-center" viewBox="0 0 24 24" aria-labelledby="alignCenterIconTitle" stroke="currentColor" fill="none" stroke-linecap="square" vector-effect="non-scaling-stroke" stroke-width="1"><title>Align Center</title><path d="M8 10h8M6 6h12M6 14h12M8 18h8"/></symbol><symbol id="align-left" viewBox="0 0 24 24" aria-labelledby="alignLeftIconTitle" stroke="currentColor" fill="none" stroke-linecap="square" vector-effect="non-scaling-stroke" stroke-width="1"><title>Align Left</title><path d="M6 10h8M6 6h12M6 14h12M6 18h8"/></symbol><symbol id="align-right" viewBox="0 0 24 24" aria-labelledby="alignRightIconTitle" stroke="currentColor" fill="none" stroke-linecap="square" vector-effect="non-scaling-stroke" stroke-width="1"><title>Align Right</title><path d="M10 10h8M6 6h12M6 14h12m-8 4h8"/></symbol><symbol id="anchor" viewBox="0 0 24 24" aria-labelledby="anchorIconTitle" stroke="currentColor" fill="none" stroke-linecap="square" vector-effect="non-scaling-stroke" stroke-width="1"><title>Anchor</title><path d="M12 20V7m-3 3h6"/><circle cx="12" cy="5" r="2"/><path d="M20 14c-1.333 4-4 6-8 6s-6.667-2-8-6"/></symbol><symbol id="aperture" viewBox="0 0 24 24" aria-labelledby="apertureIconTitle" stroke="currentColor" fill="none" stroke-linecap="square" vector-effect="non-scaling-stroke" stroke-width="1"><title>Aperture</title><path d="M12 22c5.523 0 10-4.477 10-10S17.523 2 12 2 2 6.477 2 12s4.477 10 10 10z"/><path d="M3 16h11.316M4.036 6.206l5.647 9.78m3.353-13.78l-5.657 9.798m3.585 9.79l5.65-9.787m3.35 5.787L14.31 8M21 7.987H9.718" stroke-linecap="round"/></symbol><symbol id="apps-alt" viewBox="0 0 24 24" aria-labelledby="appsAltIconTitle" stroke="currentColor" fill="none" stroke-linecap="square" vector-effect="non-scaling-stroke" stroke-width="1"><title>Apps drawer</title><path d="M5 5h2v2H5zm6 0h2v2h-2zm6 0h2v2h-2zM5 11h2v2H5zm6 0h2v2h-2zm6 0h2v2h-2zM5 17h2v2H5zm6 0h2v2h-2zm6 0h2v2h-2z"/></symbol><symbol id="apps" viewBox="0 0 24 24" aria-labelledby="appsIconTitle" stroke="currentColor" fill="none" stroke-linecap="square" vector-effect="non-scaling-stroke" stroke-width="1"><title>Apps drawer</title><circle cx="6" cy="6" r="1"/><circle cx="12" cy="6" r="1"/><circle cx="18" cy="6" r="1"/><circle cx="6" cy="12" r="1"/><circle cx="12" cy="12" r="1"/><circle cx="18" cy="12" r="1"/><circle cx="6" cy="18" r="1"/><circle cx="12" cy="18" r="1"/><circle cx="18" cy="18" r="1"/></symbol><symbol id="arrow-down-circle" viewBox="0 0 24 24" aria-labelledby="circleArrowDownIconTitle" stroke="currentColor" fill="none" stroke-linecap="square" vector-effect="non-scaling-stroke" stroke-width="1"><title>Arrow Down</title><path d="M15 13.5l-3 3-3-3m3 1.5V7.5"/><path stroke-linecap="round" d="M12 16.5V15v1.5z"/><circle cx="12" cy="12" r="10"/></symbol><symbol id="arrow-down" viewBox="0 0 24 24" aria-labelledby="arrowDownIconTitle" stroke="currentColor" fill="none" stroke-linecap="square" vector-effect="non-scaling-stroke" stroke-width="1"><title>Arrow Down</title><path d="M6 15l6 6 6-6M12 3v17"/><path stroke-linecap="round" d="M12 21v-1"/></symbol></svg>